<svg width="13" height="13" viewBox="2.0 1.0 13.0 13.0">
<path d="M 10.5 1 L 10 1.5 L 10 2.5 L 10 3.5 L 9.5 4 L 4.5 4 L 4 4.5 L 3.5 5 L 3 5.5 L 2.5 6 L 2 6.5 L 2 7.5 L 2 8.5 L 2 9.5 L 2 10.5 L 2 11.5 L 2 12.5 L 2 13.5 L 2.5 14 L 5.5 14 L 6 13.5 L 6 12.5 L 6 11.5 L 6 10.5 L 6 9.5 L 6.5 9 L 7 8.5 L 7.5 8 L 9.5 8 L 10 8.5 L 10 9.5 L 10 10.5 L 10.5 11 L 11 10.5 L 11.5 10 L 12 9.5 L 12.5 9 L 13 8.5 L 13.5 8 L 14 7.5 L 14.5 7 L 15 6.5 L 15 5.5 L 14.5 5 L 14 4.5 L 13.5 4 L 13 3.5 L 12.5 3 L 12 2.5 L 11.5 2 L 11 1.5 L 10.5 1 Z " style="fill:white" />
</svg>