<svg width="13" height="13" viewBox="1.0 1.0 13.0 13.0">
<path d="M 1.5 1 L 1 1.5 L 1 2.5 L 1 3.5 L 1.5 4 L 2 4.5 L 2 5.5 L 2 6.5 L 2 7.5 L 2 8.5 L 2.5 9 L 5.5 9 L 6 9.5 L 6.5 10 L 7 10.5 L 7 11.5 L 7 12.5 L 7 13.5 L 7.5 14 L 8 13.5 L 8 12.5 L 8 11.5 L 8 10.5 L 8.5 10 L 9 9.5 L 9.5 9 L 12.5 9 L 13 8.5 L 13 7.5 L 13 6.5 L 13 5.5 L 13 4.5 L 13.5 4 L 14 3.5 L 14 2.5 L 14 1.5 L 13.5 1 L 11.5 1 L 11 1.5 L 11 2.5 L 11 3.5 L 11.5 4 L 12 4.5 L 12 5.5 L 12 6.5 L 12 7.5 L 11.5 8 L 9.5 8 L 9 7.5 L 8.5 7 L 8 6.5 L 8 5.5 L 8 4.5 L 8.5 4 L 9 3.5 L 9 2.5 L 9 1.5 L 8.5 1 L 6.5 1 L 6 1.5 L 6 2.5 L 6 3.5 L 6.5 4 L 7 4.5 L 7 5.5 L 7 6.5 L 6.5 7 L 6 7.5 L 5.5 8 L 3.5 8 L 3 7.5 L 3 6.5 L 3 5.5 L 3 4.5 L 3.5 4 L 4 3.5 L 4 2.5 L 4 1.5 L 3.5 1 Z " style="fill:white" />
</svg>